<?xml version="1.0" encoding="utf-8"?>
<!-- Generator: Adobe Illustrator 24.3.0, SVG Export Plug-In . SVG Version: 6.00 Build 0)  -->
<svg version="1.1" id="Layer_1" xmlns="http://www.w3.org/2000/svg" xmlns:xlink="http://www.w3.org/1999/xlink" x="0px" y="0px"
	 viewBox="0 0 795.81 254.66" style="enable-background:new 0 0 795.81 254.66;" xml:space="preserve">
<style type="text/css">
	.st0{clip-path:url(#SVGID_2_);}
	.st1{fill:#EFE9F4;}
	.st2{fill:#08B2E3;}
	.st3{fill:#EE6352;}
	.st4{fill:#57A773;}
	.st5{clip-path:url(#SVGID_4_);}
	.st6{fill:url(#SVGID_5_);}
	.st7{fill:#999999;}
	.st8{fill:#707070;}
	.st9{fill:#333333;}
	.st10{stroke:#000000;stroke-miterlimit:10;}
	.st11{clip-path:url(#SVGID_7_);}
	.st12{fill:#7F007F;stroke:#000000;stroke-miterlimit:10;}
	.st13{fill:#FF7F7F;}
	.st14{fill:#7FFF7F;}
	.st15{fill:url(#SVGID_8_);}
	.st16{filter:url(#Adobe_OpacityMaskFilter);}
	.st17{fill:url(#SVGID_10_);}
	.st18{mask:url(#SVGID_9_);}
	.st19{fill:url(#SVGID_11_);}
	.st20{fill:none;}
	.st21{fill:none;stroke:#000000;stroke-miterlimit:10;}
	.st22{fill:url(#SVGID_12_);}
	.st23{fill:url(#SVGID_13_);}
	.st24{filter:url(#Adobe_OpacityMaskFilter_1_);}
	.st25{fill:url(#SVGID_15_);}
	.st26{mask:url(#SVGID_14_);}
	.st27{fill:url(#SVGID_16_);}
	.st28{fill:url(#SVGID_17_);}
	.st29{fill:url(#SVGID_18_);}
	.st30{filter:url(#Adobe_OpacityMaskFilter_2_);}
	.st31{fill:url(#SVGID_20_);}
	.st32{mask:url(#SVGID_19_);}
	.st33{fill:url(#SVGID_21_);}
	.st34{fill:none;stroke:#000000;stroke-width:2;stroke-miterlimit:10;}
</style>
<g>
	<g>
		<rect x="476.88" y="6" width="99" height="99"/>
		<path d="M575.38,6.5v98h-98v-98H575.38 M576.38,5.5h-100v100h100V5.5L576.38,5.5z"/>
	</g>
	<g>
		<defs>
			<rect id="SVGID_1_" x="476.38" y="5.5" width="100" height="100"/>
		</defs>
		<clipPath id="SVGID_2_">
			<use xlink:href="#SVGID_1_"  style="overflow:visible;"/>
		</clipPath>
		<g class="st0">
			<g>
				
					<rect x="477.14" y="5.76" transform="matrix(0.9397 -0.342 0.342 0.9397 12.859 183.4527)" class="st1" width="99" height="99"/>
				<path d="M555.93-7.54l33.52,92.09l-92.09,33.52l-33.52-92.09L555.93-7.54 M556.52-8.82l-93.97,34.2l34.2,93.97l93.97-34.2
					L556.52-8.82L556.52-8.82z"/>
			</g>
			<g>
				
					<rect x="514.33" y="55.85" transform="matrix(0.9397 -0.342 0.342 0.9397 10.3046 190.1429)" class="st2" width="60" height="20"/>
			</g>
			<g>
				<polygon class="st3" points="519.7,20.54 516.02,70.83 554.84,56.71 				"/>
			</g>
			<g>
				<circle class="st4" cx="511.65" cy="74.02" r="22.5"/>
			</g>
		</g>
	</g>
	<g>
		<path d="M575.38,6.5v98h-98v-98H575.38 M576.38,5.5h-100v100h100V5.5L576.38,5.5z"/>
	</g>
	<g>
		<rect x="583.81" y="6" width="99" height="99"/>
		<path d="M682.31,6.5v98h-98v-98H682.31 M683.31,5.5h-100v100h100V5.5L683.31,5.5z"/>
	</g>
	<g>
		<defs>
			<rect id="SVGID_3_" x="583.31" y="5.5" width="100" height="100"/>
		</defs>
		<clipPath id="SVGID_4_">
			<use xlink:href="#SVGID_3_"  style="overflow:visible;"/>
		</clipPath>
		<g class="st5">
			
				<linearGradient id="SVGID_5_" gradientUnits="userSpaceOnUse" x1="648.1522" y1="161.0322" x2="648.1522" y2="260.0329" gradientTransform="matrix(0.9397 -0.342 0.342 0.9397 -47.4985 79.1077)">
				<stop  offset="0" style="stop-color:#ABABAB"/>
				<stop  offset="1" style="stop-color:#000000"/>
			</linearGradient>
			<polygon class="st6" points="570.13,25.68 663.16,-8.18 697.02,84.85 603.99,118.71 			"/>
			<path d="M662.86-7.54l33.52,92.09l-92.09,33.52l-33.52-92.09L662.86-7.54 M663.46-8.82l-93.97,34.2l34.2,93.97l93.97-34.2
				L663.46-8.82L663.46-8.82z"/>
		</g>
		<g class="st5">
			
				<rect x="621.26" y="55.85" transform="matrix(0.9397 -0.342 0.342 0.9397 16.7533 226.7154)" class="st7" width="60" height="20"/>
		</g>
		<g class="st5">
			<polygon class="st8" points="626.63,20.54 622.96,70.83 661.77,56.71 			"/>
		</g>
		<g class="st5">
			<circle class="st9" cx="618.58" cy="74.02" r="22.5"/>
		</g>
	</g>
	<g>
		<path d="M682.31,6.5v98h-98v-98H682.31 M683.31,5.5h-100v100h100V5.5L683.31,5.5z"/>
	</g>
	<g>
		<rect x="690.31" y="5.5" class="st10" width="100" height="100"/>
		<g>
			<defs>
				<rect id="SVGID_6_" x="690.31" y="5.5" width="100" height="100"/>
			</defs>
			<clipPath id="SVGID_7_">
				<use xlink:href="#SVGID_6_"  style="overflow:visible;"/>
			</clipPath>
			<g class="st11">
				
					<rect x="690.57" y="5.26" transform="matrix(0.9397 -0.342 0.342 0.9397 25.7611 256.6232)" class="st12" width="100" height="100"/>
				<g>
					
						<rect x="728.26" y="55.85" transform="matrix(0.9397 -0.342 0.342 0.9397 23.2062 263.3115)" class="st13" width="60" height="20"/>
				</g>
				<g>
					<polygon class="st14" points="733.63,20.54 729.96,70.83 768.77,56.71 					"/>
				</g>
				<g>
					
						<radialGradient id="SVGID_8_" cx="709.611" cy="36.8626" r="43.8368" gradientTransform="matrix(0.9848 0.1736 -0.1736 0.9848 43.2049 -78.2823)" gradientUnits="userSpaceOnUse">
						<stop  offset="0" style="stop-color:#7229DD"/>
						<stop  offset="0.0966" style="stop-color:#7B26DD"/>
						<stop  offset="0.2572" style="stop-color:#951DDE"/>
						<stop  offset="0.4606" style="stop-color:#BE10DF"/>
						<stop  offset="0.628" style="stop-color:#E503E0"/>
					</radialGradient>
					<circle class="st15" cx="728.14" cy="80.65" r="22.5"/>
				</g>
				<defs>
					<filter id="Adobe_OpacityMaskFilter" filterUnits="userSpaceOnUse" x="705.63" y="58.13" width="45.01" height="45.01">
						<feColorMatrix  type="matrix" values="1 0 0 0 0  0 1 0 0 0  0 0 1 0 0  0 0 0 1 0"/>
					</filter>
				</defs>
				<mask maskUnits="userSpaceOnUse" x="705.63" y="58.13" width="45.01" height="45.01" id="SVGID_9_">
					<g class="st16">
						<g>
							
								<linearGradient id="SVGID_10_" gradientUnits="userSpaceOnUse" x1="-134.0665" y1="441.1996" x2="-63.673" y2="441.1996" gradientTransform="matrix(-0.8025 -0.5966 0.5966 -0.8025 382.4751 375.062)">
								<stop  offset="0" style="stop-color:#FFFFFF"/>
								<stop  offset="1" style="stop-color:#000000"/>
							</linearGradient>
							<circle class="st17" cx="725.06" cy="79.99" r="35.2"/>
						</g>
					</g>
				</mask>
				<g class="st18">
					
						<radialGradient id="SVGID_11_" cx="674.5862" cy="36.083" r="43.8368" gradientTransform="matrix(0.9848 0.1736 -0.1736 0.9848 43.2049 -78.2823)" gradientUnits="userSpaceOnUse">
						<stop  offset="0.2005" style="stop-color:#7D5BFA"/>
						<stop  offset="0.3251" style="stop-color:#7664F4"/>
						<stop  offset="0.5322" style="stop-color:#637EE5"/>
						<stop  offset="0.7946" style="stop-color:#45A7CD"/>
						<stop  offset="1" style="stop-color:#2ACCB7"/>
					</radialGradient>
					<circle class="st19" cx="728.13" cy="80.64" r="22.5"/>
				</g>
				<rect x="690.31" y="5.5" class="st20" width="100" height="100"/>
			</g>
		</g>
		<rect x="690.31" y="5.5" class="st21" width="100" height="100"/>
	</g>
</g>
<g>
	<g>
		<g>
			<rect x="5.5" y="77.83" class="st1" width="99" height="99"/>
			<path d="M104,78.33v98H6v-98H104 M105,77.33H5v100h100V77.33L105,77.33z"/>
		</g>
		<g>
			<rect x="38" y="133.33" class="st2" width="60" height="20"/>
		</g>
		<g>
			<polygon class="st3" points="60.35,92.33 39.7,138.33 81,138.33 			"/>
		</g>
		<g>
			<circle class="st4" cx="34.5" cy="139.83" r="22.5"/>
		</g>
	</g>
	<g>
		<g>
			<linearGradient id="SVGID_12_" gradientUnits="userSpaceOnUse" x1="161.9306" y1="77.8318" x2="161.9306" y2="176.8318">
				<stop  offset="0" style="stop-color:#ABABAB"/>
				<stop  offset="1" style="stop-color:#000000"/>
			</linearGradient>
			<rect x="112.43" y="77.83" class="st22" width="99" height="99"/>
			<path d="M210.93,78.33v98h-98v-98H210.93 M211.93,77.33h-100v100h100V77.33L211.93,77.33z"/>
		</g>
		<g>
			<rect x="144.93" y="133.33" class="st7" width="60" height="20"/>
		</g>
		<g>
			<polygon class="st8" points="167.28,92.33 146.63,138.33 187.93,138.33 			"/>
		</g>
		<g>
			<circle class="st9" cx="141.43" cy="139.83" r="22.5"/>
		</g>
	</g>
	<g>
		<rect x="218.93" y="77.33" class="st12" width="100" height="100"/>
		<g>
			<rect x="251.93" y="133.33" class="st13" width="60" height="20"/>
		</g>
		<g>
			<polygon class="st14" points="274.28,92.33 253.63,138.33 294.93,138.33 			"/>
		</g>
		<g>
			
				<radialGradient id="SVGID_13_" cx="246.9303" cy="207.9194" r="43.8368" gradientTransform="matrix(0.866 0.5 -0.5 0.866 145.5168 -153.472)" gradientUnits="userSpaceOnUse">
				<stop  offset="0" style="stop-color:#7229DD"/>
				<stop  offset="0.0966" style="stop-color:#7B26DD"/>
				<stop  offset="0.2572" style="stop-color:#951DDE"/>
				<stop  offset="0.4606" style="stop-color:#BE10DF"/>
				<stop  offset="0.628" style="stop-color:#E503E0"/>
			</radialGradient>
			<circle class="st23" cx="248.57" cy="146.93" r="22.5"/>
		</g>
		<defs>
			<filter id="Adobe_OpacityMaskFilter_1_" filterUnits="userSpaceOnUse" x="226.06" y="124.42" width="45.01" height="45.01">
				<feColorMatrix  type="matrix" values="1 0 0 0 0  0 1 0 0 0  0 0 1 0 0  0 0 0 1 0"/>
			</filter>
		</defs>
		<mask maskUnits="userSpaceOnUse" x="226.06" y="124.42" width="45.01" height="45.01" id="SVGID_14_">
			<g class="st24">
				<g>
					
						<linearGradient id="SVGID_15_" gradientUnits="userSpaceOnUse" x1="202.8607" y1="80.9026" x2="273.2542" y2="80.9026" gradientTransform="matrix(-0.55 -0.8351 0.8351 -0.55 309.2736 388.5696)">
						<stop  offset="0" style="stop-color:#FFFFFF"/>
						<stop  offset="1" style="stop-color:#000000"/>
					</linearGradient>
					<circle class="st25" cx="245.9" cy="145.26" r="35.2"/>
				</g>
			</g>
		</mask>
		<g class="st26">
			
				<radialGradient id="SVGID_16_" cx="211.9056" cy="207.1398" r="43.8368" gradientTransform="matrix(0.866 0.5 -0.5 0.866 145.5168 -153.472)" gradientUnits="userSpaceOnUse">
				<stop  offset="0.2005" style="stop-color:#7D5BFA"/>
				<stop  offset="0.3251" style="stop-color:#7664F4"/>
				<stop  offset="0.5322" style="stop-color:#637EE5"/>
				<stop  offset="0.7946" style="stop-color:#45A7CD"/>
				<stop  offset="1" style="stop-color:#2ACCB7"/>
			</radialGradient>
			<circle class="st27" cx="248.56" cy="146.92" r="22.5"/>
		</g>
	</g>
</g>
<g>
	<g>
		<g>
			<rect x="476.88" y="149.66" class="st1" width="99" height="99"/>
			<path d="M575.38,150.16v98h-98v-98H575.38 M576.38,149.16h-100v100h100V149.16L576.38,149.16z"/>
		</g>
		<g>
			<rect x="509.38" y="173.16" class="st2" width="60" height="20"/>
		</g>
		<g>
			<polygon class="st3" points="531.73,234.16 511.07,188.16 552.38,188.16 			"/>
		</g>
		<g>
			<circle class="st4" cx="505.88" cy="186.66" r="22.5"/>
		</g>
	</g>
	<g>
		<g>
			
				<linearGradient id="SVGID_17_" gradientUnits="userSpaceOnUse" x1="633.3071" y1="273.6635" x2="633.3071" y2="372.6635" gradientTransform="matrix(1 0 0 -1 0 522.3268)">
				<stop  offset="0" style="stop-color:#ABABAB"/>
				<stop  offset="1" style="stop-color:#000000"/>
			</linearGradient>
			<rect x="583.81" y="149.66" class="st28" width="99" height="99"/>
			<path d="M682.31,150.16v98h-98v-98H682.31 M683.31,149.16h-100v100h100V149.16L683.31,149.16z"/>
		</g>
		<g>
			<rect x="616.31" y="173.16" class="st7" width="60" height="20"/>
		</g>
		<g>
			<polygon class="st8" points="638.66,234.16 618.01,188.16 659.31,188.16 			"/>
		</g>
		<g>
			<circle class="st9" cx="612.81" cy="186.66" r="22.5"/>
		</g>
	</g>
	<g>
		<rect x="690.31" y="149.16" class="st12" width="100" height="100"/>
		<g>
			<rect x="723.31" y="173.16" class="st13" width="60" height="20"/>
		</g>
		<g>
			<polygon class="st14" points="745.66,234.16 725.01,188.16 766.31,188.16 			"/>
		</g>
		<g>
			
				<radialGradient id="SVGID_18_" cx="753.0699" cy="141.8265" r="43.8368" gradientTransform="matrix(0.866 -0.5 -0.5 -0.866 145.5168 675.7988)" gradientUnits="userSpaceOnUse">
				<stop  offset="0" style="stop-color:#7229DD"/>
				<stop  offset="0.0966" style="stop-color:#7B26DD"/>
				<stop  offset="0.2572" style="stop-color:#951DDE"/>
				<stop  offset="0.4606" style="stop-color:#BE10DF"/>
				<stop  offset="0.628" style="stop-color:#E503E0"/>
			</radialGradient>
			<circle class="st29" cx="719.94" cy="179.56" r="22.5"/>
		</g>
		<defs>
			<filter id="Adobe_OpacityMaskFilter_2_" filterUnits="userSpaceOnUse" x="697.44" y="157.07" width="45.01" height="45.01">
				<feColorMatrix  type="matrix" values="1 0 0 0 0  0 1 0 0 0  0 0 1 0 0  0 0 0 1 0"/>
			</filter>
		</defs>
		<mask maskUnits="userSpaceOnUse" x="697.44" y="157.07" width="45.01" height="45.01" id="SVGID_19_">
			<g class="st30">
				<g>
					
						<linearGradient id="SVGID_20_" gradientUnits="userSpaceOnUse" x1="-219.963" y1="366.8497" x2="-149.5695" y2="366.8497" gradientTransform="matrix(-0.55 0.8351 0.8351 0.55 309.2736 133.7571)">
						<stop  offset="0" style="stop-color:#FFFFFF"/>
						<stop  offset="1" style="stop-color:#000000"/>
					</linearGradient>
					<circle class="st31" cx="717.27" cy="181.24" r="35.2"/>
				</g>
			</g>
		</mask>
		<g class="st32">
			
				<radialGradient id="SVGID_21_" cx="718.0452" cy="141.0469" r="43.8368" gradientTransform="matrix(0.866 -0.5 -0.5 -0.866 145.5168 675.7988)" gradientUnits="userSpaceOnUse">
				<stop  offset="0.2005" style="stop-color:#7D5BFA"/>
				<stop  offset="0.3251" style="stop-color:#7664F4"/>
				<stop  offset="0.5322" style="stop-color:#637EE5"/>
				<stop  offset="0.7946" style="stop-color:#45A7CD"/>
				<stop  offset="1" style="stop-color:#2ACCB7"/>
			</radialGradient>
			<circle class="st33" cx="719.94" cy="179.57" r="22.5"/>
		</g>
	</g>
</g>
<g>
	<g>
		<line class="st34" x1="326.99" y1="131.35" x2="452.15" y2="187.95"/>
		<g>
			<polygon points="446.14,191.61 468.29,195.25 450.93,181.02 			"/>
		</g>
	</g>
</g>
<g>
	<g>
		<line class="st34" x1="326.94" y1="123.11" x2="452.1" y2="66.51"/>
		<g>
			<polygon points="450.88,73.44 468.24,59.21 446.09,62.85 			"/>
		</g>
	</g>
</g>
</svg>
